<svg width="196" height="196" viewBox="0 0 196 196" fill="none" xmlns="http://www.w3.org/2000/svg">
<path d="M98 52C88.9021 52 80.0084 54.6979 72.4438 59.7524C64.8791 64.8069 58.9832 71.9912 55.5015 80.3966C52.0199 88.802 51.109 98.051 52.8839 106.974C54.6588 115.897 59.0399 124.094 65.4731 130.527C71.9063 136.96 80.1027 141.341 89.0258 143.116C97.949 144.891 107.198 143.98 115.603 140.498C124.009 137.017 131.193 131.121 136.248 123.556C141.302 115.992 144 107.098 144 98C144 85.8 139.154 74.0998 130.527 65.4731C121.9 56.8464 110.2 52 98 52V52ZM98 132C91.2754 132 84.7019 130.006 79.1106 126.27C73.5193 122.534 69.1615 117.224 66.5881 111.011C64.0147 104.799 63.3414 97.9623 64.6533 91.3669C65.9652 84.7716 69.2034 78.7134 73.9584 73.9584C78.7134 69.2034 84.7716 65.9652 91.3669 64.6533C97.9623 63.3414 104.799 64.0147 111.011 66.5881C117.224 69.1615 122.534 73.5193 126.27 79.1106C130.006 84.7019 132 91.2754 132 98C131.974 107.009 128.383 115.642 122.012 122.012C115.642 128.383 107.009 131.974 98 132ZM142 0H54C39.6783 0 25.9432 5.68927 15.8162 15.8162C5.68927 25.9432 0 39.6783 0 54V142C0 156.322 5.68927 170.057 15.8162 180.184C25.9432 190.311 39.6783 196 54 196H142C156.322 196 170.057 190.311 180.184 180.184C190.311 170.057 196 156.322 196 142V54C196 39.6783 190.311 25.9432 180.184 15.8162C170.057 5.68927 156.322 0 142 0V0ZM184 142C184 153.139 179.575 163.822 171.698 171.698C163.822 179.575 153.139 184 142 184H54C42.8609 184 32.178 179.575 24.3015 171.698C16.425 163.822 12 153.139 12 142V54C12 42.8609 16.425 32.178 24.3015 24.3015C32.178 16.425 42.8609 12 54 12H142C153.139 12 163.822 16.425 171.698 24.3015C179.575 32.178 184 42.8609 184 54V142ZM160 46C160 47.9778 159.414 49.9112 158.315 51.5557C157.216 53.2002 155.654 54.4819 153.827 55.2388C152 55.9957 149.989 56.1937 148.049 55.8079C146.109 55.422 144.327 54.4696 142.929 53.0711C141.53 51.6725 140.578 49.8907 140.192 47.9509C139.806 46.0111 140.004 44.0004 140.761 42.1732C141.518 40.3459 142.8 38.7841 144.444 37.6853C146.089 36.5865 148.022 36 150 36C152.652 36 155.196 37.0536 157.071 38.9289C158.946 40.8043 160 43.3478 160 46Z" fill="white"/>
</svg>
