<svg width="800" height="800" viewBox="0 0 800 800" fill="none" xmlns="http://www.w3.org/2000/svg">
<path d="M400 194.9C286.5 194.9 194.9 286.5 194.9 400C194.9 513.5 286.5 605.1 400 605.1C513.5 605.1 605.1 513.5 605.1 400C605.1 286.5 513.5 194.9 400 194.9ZM400 533.3C326.6 533.3 266.7 473.4 266.7 400C266.7 326.6 326.6 266.7 400 266.7C473.4 266.7 533.3 326.6 533.3 400C533.3 473.4 473.4 533.3 400 533.3ZM613.5 138.7C587 138.7 565.6 160.1 565.6 186.6C565.6 213.1 587 234.5 613.5 234.5C640 234.5 661.4 213.2 661.4 186.6C661.408 180.307 660.174 174.075 657.77 168.26C655.366 162.445 651.838 157.161 647.388 152.712C642.939 148.262 637.655 144.734 631.84 142.33C626.025 139.926 619.793 138.692 613.5 138.7V138.7ZM799.8 400C799.8 344.8 800.3 290.1 797.2 235C794.1 171 779.5 114.2 732.7 67.4C685.8 20.5 629.1 6.00001 565.1 2.90001C509.9 -0.199993 455.2 0.300008 400.1 0.300008C344.9 0.300008 290.2 -0.199993 235.1 2.90001C171.1 6.00001 114.3 20.6 67.5 67.4C20.6 114.3 6.1 171 3 235C-0.100003 290.2 0.399999 344.9 0.399999 400C0.399999 455.1 -0.100003 509.9 3 565C6.1 629 20.7 685.8 67.5 732.6C114.4 779.5 171.1 794 235.1 797.1C290.3 800.2 345 799.7 400.1 799.7C455.3 799.7 510 800.2 565.1 797.1C629.1 794 685.9 779.4 732.7 732.6C779.6 685.7 794.1 629 797.2 565C800.4 509.9 799.8 455.2 799.8 400V400ZM711.8 635.8C704.5 654 695.7 667.6 681.6 681.6C667.5 695.7 654 704.5 635.8 711.8C583.2 732.7 458.3 728 400 728C341.7 728 216.7 732.7 164.1 711.9C145.9 704.6 132.3 695.8 118.3 681.7C104.2 667.6 95.4 654.1 88.1 635.9C67.3 583.2 72 458.3 72 400C72 341.7 67.3 216.7 88.1 164.1C95.4 145.9 104.2 132.3 118.3 118.3C132.4 104.3 145.9 95.4 164.1 88.1C216.7 67.3 341.7 72 400 72C458.3 72 583.3 67.3 635.9 88.1C654.1 95.4 667.7 104.2 681.7 118.3C695.8 132.4 704.6 145.9 711.9 164.1C732.7 216.7 728 341.7 728 400C728 458.3 732.7 583.2 711.8 635.8Z" fill="white"/>
</svg>
