<svg width="240" height="190" viewBox="0 0 240 190" fill="none" xmlns="http://www.w3.org/2000/svg">
<g filter="url(#filter0_dd_10_15)">
<path d="M203.17 15.92C187.87 9.02001 171.47 3.92001 154.32 1.02001C154.167 0.99069 154.009 1.00959 153.868 1.07408C153.726 1.13858 153.608 1.24549 153.53 1.38001C151.43 5.07001 149.09 9.88001 147.45 13.68C129.261 10.9624 110.769 10.9624 92.5801 13.68C90.7534 9.46862 88.6935 5.36225 86.4101 1.38001C86.3327 1.24384 86.2156 1.13451 86.0744 1.06661C85.9333 0.998716 85.7748 0.975481 85.6201 1.00001C68.4801 3.90001 52.0801 9.00001 36.77 15.91C36.6383 15.9653 36.5267 16.0595 36.45 16.18C5.33005 61.93 -3.19995 106.55 0.990046 150.61C1.0017 150.718 1.0352 150.822 1.08849 150.917C1.14179 151.011 1.21377 151.094 1.30005 151.16C19.464 164.384 39.7234 174.458 61.2301 180.96C61.38 181.006 61.5403 181.006 61.6902 180.96C61.84 180.913 61.9724 180.823 62.07 180.7C66.6901 174.5 70.8101 167.95 74.3301 161.07C74.5401 160.67 74.3401 160.19 73.9201 160.03C67.4601 157.597 61.2009 154.662 55.2001 151.25C55.0922 151.188 55.0014 151.101 54.9356 150.996C54.8699 150.89 54.8313 150.77 54.8234 150.647C54.8155 150.523 54.8384 150.399 54.8902 150.286C54.942 150.173 55.021 150.075 55.1201 150C56.3801 149.07 57.64 148.1 58.84 147.13C58.9481 147.043 59.0782 146.987 59.2159 146.97C59.3536 146.952 59.4935 146.973 59.6201 147.03C98.8901 164.67 141.42 164.67 180.23 147.03C180.357 146.969 180.498 146.946 180.638 146.962C180.778 146.978 180.91 147.032 181.02 147.12C182.22 148.1 183.47 149.07 184.74 150C184.84 150.073 184.92 150.17 184.974 150.282C185.027 150.394 185.052 150.517 185.046 150.641C185.04 150.765 185.004 150.885 184.94 150.992C184.876 151.098 184.787 151.187 184.68 151.25C178.7 154.69 172.48 157.6 165.95 160.02C165.85 160.056 165.758 160.114 165.682 160.188C165.606 160.263 165.546 160.353 165.507 160.452C165.469 160.552 165.451 160.658 165.457 160.765C165.463 160.871 165.491 160.975 165.54 161.07C169.14 167.94 173.26 174.48 177.79 180.69C177.884 180.817 178.015 180.913 178.166 180.963C178.316 181.013 178.478 181.015 178.63 180.97C200.174 174.486 220.466 164.408 238.65 151.16C238.739 151.098 238.813 151.018 238.868 150.925C238.924 150.831 238.958 150.728 238.97 150.62C243.97 99.68 230.59 55.42 203.48 16.2C203.414 16.0726 203.304 15.9732 203.17 15.92ZM80.2001 123.78C68.3801 123.78 58.6301 113.09 58.6301 99.98C58.6301 86.86 68.1901 76.18 80.2001 76.18C92.3001 76.18 101.96 86.95 101.77 99.98C101.77 113.1 92.2101 123.78 80.2001 123.78V123.78ZM159.95 123.78C148.12 123.78 138.38 113.09 138.38 99.98C138.38 86.86 147.93 76.18 159.95 76.18C172.05 76.18 181.71 86.95 181.52 99.98C181.52 113.1 172.06 123.78 159.95 123.78V123.78Z" fill="white"/>
</g>
<defs>
<filter id="filter0_dd_10_15" x="-4.00476" y="0.990509" width="248.007" height="188.012" filterUnits="userSpaceOnUse" color-interpolation-filters="sRGB">
<feFlood flood-opacity="0" result="BackgroundImageFix"/>
<feColorMatrix in="SourceAlpha" type="matrix" values="0 0 0 0 0 0 0 0 0 0 0 0 0 0 0 0 0 0 127 0" result="hardAlpha"/>
<feOffset dy="4"/>
<feGaussianBlur stdDeviation="2"/>
<feComposite in2="hardAlpha" operator="out"/>
<feColorMatrix type="matrix" values="0 0 0 0 0 0 0 0 0 0 0 0 0 0 0 0 0 0 0.25 0"/>
<feBlend mode="normal" in2="BackgroundImageFix" result="effect1_dropShadow_10_15"/>
<feColorMatrix in="SourceAlpha" type="matrix" values="0 0 0 0 0 0 0 0 0 0 0 0 0 0 0 0 0 0 127 0" result="hardAlpha"/>
<feOffset dy="4"/>
<feGaussianBlur stdDeviation="2"/>
<feComposite in2="hardAlpha" operator="out"/>
<feColorMatrix type="matrix" values="0 0 0 0 0 0 0 0 0 0 0 0 0 0 0 0 0 0 0.25 0"/>
<feBlend mode="normal" in2="effect1_dropShadow_10_15" result="effect2_dropShadow_10_15"/>
<feBlend mode="normal" in="SourceGraphic" in2="effect2_dropShadow_10_15" result="shape"/>
</filter>
</defs>
</svg>
