<svg width="32" height="32" viewBox="0 0 32 32" fill="none" xmlns="http://www.w3.org/2000/svg">
<path d="M26.07 3.996C25.749 4.01935 25.4339 4.09467 25.137 4.219H25.133C24.848 4.332 23.493 4.902 21.433 5.766L14.051 8.875C8.754 11.105 3.547 13.301 3.547 13.301L3.609 13.277C3.609 13.277 3.25 13.395 2.875 13.652C2.64332 13.7994 2.44397 13.9923 2.289 14.219C2.105 14.489 1.957 14.902 2.012 15.329C2.102 16.051 2.57 16.484 2.906 16.723C3.246 16.965 3.57 17.078 3.57 17.078H3.578L8.461 18.723C8.68 19.426 9.949 23.598 10.254 24.559C10.434 25.133 10.609 25.492 10.828 25.766C10.934 25.906 11.058 26.023 11.207 26.117C11.2845 26.1621 11.367 26.1976 11.453 26.223L11.403 26.211C11.418 26.215 11.43 26.227 11.441 26.231C11.481 26.242 11.508 26.246 11.559 26.254C12.332 26.488 12.953 26.008 12.953 26.008L12.988 25.98L15.871 23.355L20.703 27.062L20.813 27.109C21.82 27.551 22.84 27.305 23.379 26.871C23.922 26.434 24.133 25.875 24.133 25.875L24.168 25.785L27.902 6.656C28.008 6.184 28.035 5.742 27.918 5.313C27.7973 4.87882 27.5188 4.5054 27.137 4.266C26.8164 4.07111 26.4447 3.97705 26.07 3.996V3.996ZM25.969 6.046C25.965 6.109 25.977 6.102 25.949 6.223V6.234L22.25 25.164C22.234 25.191 22.207 25.25 22.133 25.309C22.055 25.371 21.993 25.41 21.668 25.281L15.758 20.75L12.188 24.004L12.938 19.214L22.594 10.214C22.992 9.844 22.859 9.766 22.859 9.766C22.887 9.312 22.258 9.633 22.258 9.633L10.082 17.176L10.078 17.156L4.242 15.191V15.187L4.227 15.184C4.23723 15.1806 4.24725 15.1766 4.257 15.172L4.289 15.156L4.32 15.145C4.32 15.145 9.531 12.949 14.828 10.719C17.48 9.602 20.152 8.477 22.207 7.609C24.262 6.746 25.781 6.113 25.867 6.079C25.949 6.047 25.91 6.047 25.969 6.047V6.046Z" fill="white"/>
</svg>
